<svg xmlns="http://www.w3.org/2000/svg" viewBox="0 0 1280 800" role="img" aria-label="rpiv-voice — Local voice dictation overlay for Pi" preserveAspectRatio="xMidYMid meet">
  <title>rpiv-voice — Local voice dictation overlay for Pi</title>
  <defs>
    <style>
      .mono { font-family: 'JetBrains Mono', 'Fira Code', ui-monospace, SFMono-Regular, Menlo, Consolas, monospace; }
      .serif { font-family: 'Iowan Old Style', 'Hoefler Text', Charter, 'Source Serif Pro', Georgia, serif; }
      .ink { fill: #ede6d3; }
      .text-quiet { fill: #a8a29e; }
      .text-distant { fill: #9c968d; }
      .ochre { fill: #a8896c; }
      .sage { fill: #8a9580; }
      .alert { fill: #b04a3a; }
      .fade { fill: #6b6560; }
    </style>
    <radialGradient id="wash-ochre" cx="25%" cy="10%" r="65%">
      <stop offset="0%" stop-color="#a8896c" stop-opacity="0.10"/>
      <stop offset="100%" stop-color="#a8896c" stop-opacity="0"/>
    </radialGradient>
    <radialGradient id="wash-sage" cx="85%" cy="90%" r="55%">
      <stop offset="0%" stop-color="#8a9580" stop-opacity="0.07"/>
      <stop offset="100%" stop-color="#8a9580" stop-opacity="0"/>
    </radialGradient>

    <linearGradient id="eqFade" x1="0" x2="1" y1="0" y2="0">
      <stop offset="0%" stop-color="#8a9580" stop-opacity="0.05"/>
      <stop offset="50%" stop-color="#8a9580" stop-opacity="0.90"/>
      <stop offset="100%" stop-color="#8a9580" stop-opacity="0.05"/>
    </linearGradient>
    <radialGradient id="recPulse" cx="50%" cy="50%" r="50%">
      <stop offset="0%" stop-color="#b04a3a" stop-opacity="0.40"/>
      <stop offset="100%" stop-color="#b04a3a" stop-opacity="0"/>
    </radialGradient>
  </defs>

  <rect width="1280" height="800" fill="#1c1a17"/>
  <rect width="1280" height="800" fill="url(#wash-ochre)"/>
  <rect width="1280" height="800" fill="url(#wash-sage)"/>

  <g fill="none" stroke="#8a9580" stroke-linecap="round" opacity="0.45">
    <path d="M1120 60 q36 -52 88 -60 q40 -5 68 14" stroke-width="1.1"/>
    <path d="M1140 80 q28 -18 60 -14 q24 3 42 14" stroke-width="0.7" opacity="0.6"/>
    <circle cx="1210" cy="32" r="2" opacity="0.5"/>
    <circle cx="1160" cy="60" r="1.4" opacity="0.4"/>
  </g>

  <text class="mono text-distant" x="80" y="64" font-size="11" letter-spacing="0.18em">PI AGENT EXTENSION</text>

  <text class="serif ink" x="80" y="152" font-size="80" font-weight="700" letter-spacing="-2.5">rpiv<tspan class="ochre">-</tspan>voice</text>
  <text class="mono text-quiet" x="80" y="196" font-size="19" letter-spacing="0.2">Local voice dictation overlay for Pi.</text>

  <line x1="80" y1="228" x2="1200" y2="228" stroke="#2e2b27" stroke-width="1"/>

  <rect x="80" y="264" width="1120" height="440" rx="3" fill="#1c1a17" stroke="#3a3631" stroke-width="1"/>

  <!-- Section label -->
  <text class="mono text-distant" x="120" y="300" font-size="12" letter-spacing="0.2em">/VOICE &#8212; LIVE TRANSCRIPT</text>

  <!-- Live transcript -->
  <text class="mono ink" x="120" y="356" font-size="28">Refactor the splash runner so download progress shows</text>
  <text class="mono ink" x="120" y="396" font-size="28">percent and bytes on a single line, then keep the same</text>
  <text class="mono ink" x="120" y="436" font-size="28">format for extracting and verifying.</text>
  <text class="mono fade" x="120" y="476" font-size="28">Add a unit test that asserts the whisper hallucination&#8230;</text>

  <line x1="120" y1="508" x2="1160" y2="508" stroke="#8a9580" stroke-opacity="0.55" stroke-width="1"/>

  <!-- Equalizer -->
  <g transform="translate(120 530)" fill="url(#eqFade)">
    <rect x="0"    y="34" rx="2" width="8" height="6"/>
    <rect x="14"   y="30" rx="2" width="8" height="14"/>
    <rect x="28"   y="20" rx="2" width="8" height="34"/>
    <rect x="42"   y="26" rx="2" width="8" height="22"/>
    <rect x="56"   y="16" rx="2" width="8" height="42"/>
    <rect x="70"   y="22" rx="2" width="8" height="30"/>
    <rect x="84"   y="10" rx="2" width="8" height="54"/>
    <rect x="98"   y="18" rx="2" width="8" height="38"/>
    <rect x="112"  y="6"  rx="2" width="8" height="62"/>
    <rect x="126"  y="14" rx="2" width="8" height="46"/>
    <rect x="140"  y="20" rx="2" width="8" height="34"/>
    <rect x="154"  y="12" rx="2" width="8" height="50"/>
    <rect x="168"  y="18" rx="2" width="8" height="38"/>
    <rect x="182"  y="8"  rx="2" width="8" height="58"/>
    <rect x="196"  y="14" rx="2" width="8" height="46"/>
    <rect x="210"  y="4"  rx="2" width="8" height="66"/>
    <rect x="224"  y="12" rx="2" width="8" height="50"/>
    <rect x="238"  y="20" rx="2" width="8" height="34"/>
    <rect x="252"  y="10" rx="2" width="8" height="54"/>
    <rect x="266"  y="16" rx="2" width="8" height="42"/>
    <rect x="280"  y="4"  rx="2" width="8" height="66"/>
    <rect x="294"  y="14" rx="2" width="8" height="46"/>
    <rect x="308"  y="22" rx="2" width="8" height="30"/>
    <rect x="322"  y="12" rx="2" width="8" height="50"/>
    <rect x="336"  y="18" rx="2" width="8" height="38"/>
    <rect x="350"  y="8"  rx="2" width="8" height="58"/>
    <rect x="364"  y="14" rx="2" width="8" height="46"/>
    <rect x="378"  y="20" rx="2" width="8" height="34"/>
    <rect x="392"  y="12" rx="2" width="8" height="50"/>
    <rect x="406"  y="24" rx="2" width="8" height="26"/>
    <rect x="420"  y="18" rx="2" width="8" height="38"/>
    <rect x="434"  y="12" rx="2" width="8" height="50"/>
    <rect x="448"  y="22" rx="2" width="8" height="30"/>
    <rect x="462"  y="16" rx="2" width="8" height="42"/>
    <rect x="476"  y="26" rx="2" width="8" height="22"/>
    <rect x="490"  y="20" rx="2" width="8" height="34"/>
    <rect x="504"  y="14" rx="2" width="8" height="46"/>
    <rect x="518"  y="24" rx="2" width="8" height="26"/>
    <rect x="532"  y="18" rx="2" width="8" height="38"/>
    <rect x="546"  y="28" rx="2" width="8" height="18"/>
    <rect x="560"  y="22" rx="2" width="8" height="30"/>
    <rect x="574"  y="32" rx="2" width="8" height="10"/>
    <rect x="588"  y="24" rx="2" width="8" height="26"/>
    <rect x="602"  y="34" rx="2" width="8" height="6"/>
    <rect x="616"  y="28" rx="2" width="8" height="18"/>
    <rect x="630"  y="36" rx="2" width="8" height="4"/>
    <rect x="644"  y="32" rx="2" width="8" height="10"/>
    <rect x="658"  y="36" rx="2" width="8" height="4"/>
    <rect x="672"  y="34" rx="2" width="8" height="6"/>
    <rect x="686"  y="36" rx="2" width="8" height="4"/>
    <rect x="700"  y="36" rx="2" width="8" height="4"/>
    <rect x="714"  y="36" rx="2" width="8" height="4"/>
    <rect x="728"  y="36" rx="2" width="8" height="4"/>
    <rect x="742"  y="36" rx="2" width="8" height="4"/>
    <rect x="756"  y="36" rx="2" width="8" height="4"/>
    <rect x="770"  y="36" rx="2" width="8" height="4"/>
    <rect x="784"  y="36" rx="2" width="8" height="4"/>
    <rect x="798"  y="36" rx="2" width="8" height="4"/>
    <rect x="812"  y="36" rx="2" width="8" height="4"/>
    <rect x="826"  y="36" rx="2" width="8" height="4"/>
    <rect x="840"  y="36" rx="2" width="8" height="4"/>
    <rect x="854"  y="36" rx="2" width="8" height="4"/>
  </g>

  <!-- Status row -->
  <circle cx="138" cy="640" r="18" fill="url(#recPulse)"/>
  <text class="alert mono" x="122" y="646" font-size="22">&#9679;</text>
  <text class="mono" font-size="18" y="644">
    <tspan x="158" class="text-quiet" font-weight="700">0:14</tspan>
    <tspan dx="12" class="text-distant">&#183;</tspan>
    <tspan dx="12" class="ink" font-weight="700">Enter</tspan>
    <tspan dx="8" class="text-quiet">to paste</tspan>
    <tspan dx="12" class="text-distant">&#183;</tspan>
    <tspan dx="12" class="ink" font-weight="700">Space</tspan>
    <tspan dx="8" class="text-quiet">to pause</tspan>
    <tspan dx="12" class="text-distant">&#183;</tspan>
    <tspan dx="12" class="ink" font-weight="700">Tab</tspan>
    <tspan dx="8" class="text-quiet">for settings</tspan>
    <tspan dx="12" class="text-distant">&#183;</tspan>
    <tspan dx="12" class="ink" font-weight="700">Esc</tspan>
    <tspan dx="8" class="text-quiet">to cancel</tspan>
  </text>

  <text class="mono text-distant" x="120" y="688" font-size="12" letter-spacing="0.15em">100% ON-DEVICE &#183; WHISPER MULTILINGUAL &#183; ~99 LANGUAGES &#183; NO CLOUD</text>

  <line x1="80" y1="740" x2="1200" y2="740" stroke="#2e2b27" stroke-width="1"/>

  <text class="mono text-distant" x="80" y="776" font-size="12" letter-spacing="0.12em">
    <tspan class="ochre" font-weight="700">&#9612; rpiv-voice</tspan>
    <tspan dx="12">&#9474;</tspan>
    <tspan dx="12" class="sage">on-device STT</tspan>
    <tspan dx="12">&#9474;</tspan>
    <tspan dx="12">npm:@juicesharp/rpiv-voice</tspan>
  </text>
</svg>